HIERARCHY
ROOT SpineBase
{
  OFFSET 0.000000 0.000000 0.000000
  CHANNELS 6 Xposition Yposition Zposition Zrotation Xrotation Yrotation
  JOINT SpineMid
  {
    OFFSET -0.000000 31.085973 0.000000
    CHANNELS 3 Zrotation Xrotation Yrotation
    JOINT SpineShoulder
    {
      OFFSET 0.016519 22.972004 -0.869754
      CHANNELS 3 Zrotation Xrotation Yrotation
      JOINT Neck
      {
        OFFSET 0.029773 7.582675 -0.624795
        CHANNELS 3 Zrotation Xrotation Yrotation
        JOINT Head
        {
          OFFSET -3.467706 14.467100 -2.815481
          CHANNELS 3 Zrotation Xrotation Yrotation
          End Site
          {
            OFFSET 0 0 0
          }
        }
      }
      JOINT ShoulderLeft
      {
        OFFSET -17.452136 -3.661845 6.748255
        CHANNELS 3 Zrotation Xrotation Yrotation
        JOINT ElbowLeft
        {
          OFFSET -5.544254 -25.578204 7.423846
          CHANNELS 3 Zrotation Xrotation Yrotation
          JOINT WristLeft
          {
            OFFSET -3.922434 -13.707932 -20.781316
            CHANNELS 3 Zrotation Xrotation Yrotation
            JOINT HandLeft
            {
              OFFSET -3.116070 -4.027730 -10.261626
              CHANNELS 3 Zrotation Xrotation Yrotation
              JOINT HandTipLeft
              {
                OFFSET -0.175472 -3.393406 -4.015518
                CHANNELS 3 Zrotation Xrotation Yrotation
                End Site
                {
                  OFFSET 0 0 0
                }
              }
              JOINT ThumbLeft
              {
                OFFSET 6.459718 2.742829 -1.420358
                CHANNELS 3 Zrotation Xrotation Yrotation
                End Site
                {
                  OFFSET 0 0 0
                }
              }
            }
          }
        }
      }
      JOINT ShoulderRight
      {
        OFFSET 14.276130 -4.762805 -6.978505
        CHANNELS 3 Zrotation Xrotation Yrotation
        JOINT ElbowRight
        {
          OFFSET 8.234279 -23.578104 0.915762
          CHANNELS 3 Zrotation Xrotation Yrotation
          JOINT WristRight
          {
            OFFSET -10.365890 -16.823641 -14.419718
            CHANNELS 3 Zrotation Xrotation Yrotation
            JOINT HandRight
            {
              OFFSET -5.502388 -3.497114 -4.652452
              CHANNELS 3 Zrotation Xrotation Yrotation
              JOINT HandTipRight
              {
                OFFSET -4.000134 -6.716655 -2.942824
                CHANNELS 3 Zrotation Xrotation Yrotation
                End Site
                {
                  OFFSET 0 0 0
                }
              }
              JOINT ThumbRight
              {
                OFFSET -2.177508 3.020940 -3.453140
                CHANNELS 3 Zrotation Xrotation Yrotation
                End Site
                {
                  OFFSET 0 0 0
                }
              }
            }
          }
        }
      }
    }
  }
  JOINT HipLeft
  {
    OFFSET -7.084462 0.538155 -1.218813
    CHANNELS 3 Zrotation Xrotation Yrotation
    JOINT KneeLeft
    {
      OFFSET -3.752386 -35.004412 9.664215
      CHANNELS 3 Zrotation Xrotation Yrotation
      JOINT AnkleLeft
      {
        OFFSET 4.270233 -37.450968 8.304047
        CHANNELS 3 Zrotation Xrotation Yrotation
        JOINT FootLeft
        {
          OFFSET -2.894348 -6.066806 -2.737504
          CHANNELS 3 Zrotation Xrotation Yrotation
          End Site
          {
            OFFSET 0 0 0
          }
        }
      }
    }
  }
  JOINT HipRight
  {
    OFFSET 7.815825 0.582310 -6.023316
    CHANNELS 3 Zrotation Xrotation Yrotation
    JOINT KneeRight
    {
      OFFSET 0.777333 -32.187761 5.089539
      CHANNELS 3 Zrotation Xrotation Yrotation
      JOINT AnkleRight
      {
        OFFSET 1.620942 -39.579977 9.869465
        CHANNELS 3 Zrotation Xrotation Yrotation
        JOINT FootRight
        {
          OFFSET -1.259609 -5.563910 -5.867774
          CHANNELS 3 Zrotation Xrotation Yrotation
          End Site
          {
            OFFSET 0 0 0
          }
        }
      }
    }
  }
}
MOTION
Frames: 9
Frame Time: 0.033333
-32.319823 78.997505 338.904546 0.000000 0.000000 17.871587 -0.000000 0.000000 -17.871587 -0.000000 0.000000 0.000000 -0.000000 0.000000 0.000000 0.000000 0.000000 0.000000 -0.000000 0.000000 0.000000 -0.000000 0.000000 0.000000 -0.000000 0.000000 0.000000 -0.000000 0.000000 0.000000 0.000000 0.000000 0.000000 0.000000 0.000000 0.000000 -0.000000 0.000000 0.000000 -0.000000 0.000000 0.000000 -0.000000 0.000000 0.000000 -0.000000 0.000000 0.000000 0.000000 0.000000 0.000000 0.000000 0.000000 0.000000 -0.000000 0.000000 -17.871587 -0.000000 0.000000 0.000000 -0.000000 0.000000 0.000000 0.000000 0.000000 0.000000 -0.000000 0.000000 -17.871587 -0.000000 0.000000 0.000000 -0.000000 0.000000 0.000000 0.000000 0.000000 0.000000
-32.255508 79.016645 338.902137 -0.058518 -0.019194 18.068776 0.061586 0.000098 -18.068786 -0.000000 0.000000 0.000000 -0.000000 0.000000 0.000000 0.000000 0.000000 0.000000 -0.000000 0.000000 0.000000 1.255041 -0.575748 -1.750356 -2.604065 1.204131 4.506727 -0.550744 -1.549073 -0.575655 0.000000 0.000000 0.000000 0.000000 0.000000 0.000000 -0.000000 0.000000 0.000000 -0.000000 0.000000 0.000000 0.745293 -1.227354 0.971417 -1.455256 4.300330 -2.371418 0.000000 0.000000 0.000000 0.000000 0.000000 0.000000 0.061586 0.000098 -18.068786 -1.171515 -0.757984 -0.353840 3.555893 10.381413 -5.424045 0.000000 0.000000 0.000000 0.061586 0.000098 -18.068786 -0.000000 0.000000 0.000000 -2.155747 5.640360 1.043329 0.000000 0.000000 0.000000
-32.196495 79.031016 338.899028 -0.116775 -0.038769 18.249770 0.123042 0.000250 -18.249810 -0.000000 0.000000 0.000000 -0.000000 0.000000 0.000000 0.000000 0.000000 0.000000 -0.000000 0.000000 0.000000 2.106003 -0.786476 -2.999886 -4.525394 1.729799 7.873868 -0.874397 -2.576724 -1.231187 0.000000 0.000000 0.000000 0.000000 0.000000 0.000000 -0.000000 0.000000 0.000000 -1.143096 0.159993 0.876355 2.395918 -2.280147 0.789206 -2.501952 7.609451 -4.059659 0.000000 0.000000 0.000000 0.000000 0.000000 0.000000 0.123042 0.000250 -18.249810 -2.152347 -1.402750 -0.663216 6.616257 19.084515 -10.185832 0.000000 0.000000 0.000000 0.123042 0.000250 -18.249810 -0.000000 0.000000 0.000000 -3.670058 9.231557 1.898185 0.000000 0.000000 0.000000
-32.142785 79.040619 338.895220 -0.174743 -0.058718 18.413603 0.184344 0.000514 -18.413694 -0.000000 0.000000 0.000000 -0.000000 0.000000 0.000000 0.000000 0.000000 0.000000 -0.000000 0.000000 0.000000 2.573764 -0.616951 -3.765707 -5.719872 1.695491 10.085260 -1.118655 -3.204430 -1.715492 0.000000 0.000000 0.000000 0.000000 0.000000 0.000000 -0.000000 0.000000 0.000000 -1.564321 0.377538 1.101008 3.174175 -3.101089 1.044545 -3.301536 10.069611 -5.205555 0.000000 0.000000 0.000000 0.000000 0.000000 0.000000 0.184344 0.000514 -18.413694 -2.933973 -1.933145 -0.919874 8.905182 26.160986 -14.057554 0.000000 0.000000 0.000000 0.184344 0.000514 -18.413694 -0.000000 0.000000 0.000000 -4.599231 11.135941 2.493170 0.000000 0.000000 0.000000
-32.094378 79.045454 338.890713 -0.232397 -0.079030 18.559487 0.245466 0.000950 -18.559649 -0.000000 0.000000 0.000000 -0.000000 0.000000 0.000000 0.000000 0.000000 0.000000 -0.000000 0.000000 0.000000 2.673312 -0.065276 -4.062233 -6.167844 1.178890 11.134546 -1.365700 -3.491180 -1.883453 0.000000 0.000000 0.000000 0.000000 0.000000 0.000000 -0.000000 0.000000 0.000000 -1.891126 0.689766 1.189159 3.730303 -3.787909 1.262831 -3.950969 11.783930 -5.892762 0.000000 0.000000 0.000000 0.000000 0.000000 0.000000 0.245466 0.000950 -18.559649 -3.509776 -2.348715 -1.117073 10.241077 31.895403 -16.938343 0.000000 0.000000 0.000000 0.245466 0.000950 -18.559649 -0.481321 -0.667841 -0.149984 -4.541249 12.223540 3.009782 0.000000 0.000000 0.000000
-32.051273 79.045520 338.885507 -0.289712 -0.099699 18.686815 0.306383 0.001620 -18.687071 -0.000000 0.000000 0.000000 0.637874 0.478820 0.236123 0.000000 0.000000 0.000000 -0.000000 0.000000 0.000000 2.411912 0.859329 -3.898648 -5.858739 0.211619 11.008209 -1.674854 -3.455126 -1.624518 0.000000 0.000000 0.000000 0.000000 0.000000 0.000000 -0.000000 0.000000 0.000000 -2.125395 1.099567 1.142296 4.087434 -4.371278 1.464498 -4.508388 12.819701 -6.170438 0.000000 0.000000 0.000000 0.000000 0.000000 0.000000 0.306383 0.001620 -18.687071 -3.874847 -2.649323 -1.249635 10.508992 36.587405 -18.790852 0.000000 0.000000 0.000000 0.812578 0.636213 -18.627725 -0.816891 -1.538697 -0.240763 -4.327505 11.354758 3.057331 0.000000 0.000000 0.000000
-31.993400 79.055028 338.871964 -0.326750 -0.111658 18.791372 0.345301 0.000451 -18.791692 -0.000000 0.000000 0.000000 0.611112 0.517654 0.240155 0.000000 0.000000 0.000000 -0.000000 0.000000 0.000000 0.936478 1.899148 -1.934466 -3.174571 -0.620944 6.327361 -5.173905 -3.836401 3.989951 0.000000 0.000000 0.000000 0.000000 0.000000 0.000000 -0.000000 0.000000 0.000000 -1.912249 1.146828 0.934022 3.895066 -4.321712 1.529376 -5.169187 12.289764 -5.441746 0.000000 0.000000 0.000000 0.000000 0.000000 0.000000 0.345301 0.000451 -18.791692 -3.286896 -2.567977 -1.093663 3.063068 43.664223 -16.595350 0.000000 0.000000 0.000000 0.807330 0.727560 -18.742228 -0.762807 -1.766032 -0.243418 -1.247713 2.109619 1.825116 0.000000 0.000000 0.000000
-31.969959 79.051482 338.884132 -0.378249 -0.141562 18.846269 0.403699 0.011785 -18.846778 -0.000000 0.000000 0.000000 -0.000000 0.000000 0.000000 0.000000 0.000000 0.000000 -0.000000 0.000000 0.000000 0.098672 3.776014 -1.175229 -1.294725 -3.826802 4.318152 -5.003147 -0.744714 4.202576 0.000000 0.000000 0.000000 0.000000 0.000000 0.000000 -0.000000 0.000000 0.000000 -2.085250 1.421842 0.917192 5.040477 -5.110591 1.124573 -7.170100 12.706453 -4.287551 0.000000 0.000000 0.000000 0.000000 0.000000 0.000000 0.514651 0.837488 -18.980107 -3.123644 -3.442735 -1.015183 0.590060 47.625396 -16.163782 0.000000 0.000000 0.000000 0.835326 0.867806 -18.806243 -0.637274 -1.932361 -0.223160 0.096987 -3.184252 1.589440 0.000000 0.000000 0.000000
-31.943801 79.024114 338.882315 -0.428107 -0.175654 18.907474 0.461926 0.027449 -18.908241 -0.000000 0.000000 0.000000 -0.000000 0.000000 0.000000 0.000000 0.000000 0.000000 -0.000000 0.000000 0.000000 0.028860 5.388315 -1.482349 -1.344233 -5.295845 4.890892 -3.233134 0.777726 1.982530 0.000000 0.000000 0.000000 0.000000 0.000000 0.000000 -0.000000 0.000000 0.000000 -1.248522 1.937356 -0.100412 2.738910 -4.132052 1.792753 -4.714647 9.582333 -3.892085 0.000000 0.000000 0.000000 0.000000 0.000000 0.000000 0.674580 0.888406 -19.026370 -3.210224 -3.533467 -1.039618 0.034810 47.625416 -15.712292 0.000000 0.000000 0.000000 0.700634 1.054109 -18.902060 -0.295422 -2.108600 -0.161833 0.026041 -2.679260 1.427811 0.000000 0.000000 0.000000
